<?xml version="1.0" encoding="us-ascii" standalone="no"?><svg xmlns="http://www.w3.org/2000/svg" xmlns:xlink="http://www.w3.org/1999/xlink" contentStyleType="text/css" height="1229px" preserveAspectRatio="none" style="width:1057px;height:1229px;background:#FFFFFF;" version="1.1" viewBox="0 0 1057 1229" width="1057px" zoomAndPan="magnify"><defs/><g><line style="stroke:#181818;stroke-width:0.5;stroke-dasharray:5.0,5.0;" x1="34" x2="34" y1="82.6094" y2="200.0156"/><line style="stroke:#A80036;stroke-width:1.0;stroke-dasharray:1.0,4.0;" x1="34" x2="34" y1="200.0156" y2="241.8516"/><line style="stroke:#181818;stroke-width:0.5;stroke-dasharray:5.0,5.0;" x1="34" x2="34" y1="241.8516" y2="623.125"/><line style="stroke:#A80036;stroke-width:1.0;stroke-dasharray:1.0,4.0;" x1="34" x2="34" y1="623.125" y2="664.9609"/><line style="stroke:#181818;stroke-width:0.5;stroke-dasharray:5.0,5.0;" x1="34" x2="34" y1="664.9609" y2="977.125"/><line style="stroke:#A80036;stroke-width:1.0;stroke-dasharray:1.0,4.0;" x1="34" x2="34" y1="977.125" y2="1018.9609"/><line style="stroke:#181818;stroke-width:0.5;stroke-dasharray:5.0,5.0;" x1="34" x2="34" y1="1018.9609" y2="1065.6641"/><line style="stroke:#A80036;stroke-width:1.0;stroke-dasharray:1.0,4.0;" x1="34" x2="34" y1="1065.6641" y2="1107.5"/><line style="stroke:#181818;stroke-width:0.5;stroke-dasharray:5.0,5.0;" x1="34" x2="34" y1="1107.5" y2="1147.8516"/><line style="stroke:#181818;stroke-width:0.5;stroke-dasharray:5.0,5.0;" x1="179" x2="179" y1="82.6094" y2="200.0156"/><line style="stroke:#A80036;stroke-width:1.0;stroke-dasharray:1.0,4.0;" x1="179" x2="179" y1="200.0156" y2="241.8516"/><line style="stroke:#181818;stroke-width:0.5;stroke-dasharray:5.0,5.0;" x1="179" x2="179" y1="241.8516" y2="623.125"/><line style="stroke:#A80036;stroke-width:1.0;stroke-dasharray:1.0,4.0;" x1="179" x2="179" y1="623.125" y2="664.9609"/><line style="stroke:#181818;stroke-width:0.5;stroke-dasharray:5.0,5.0;" x1="179" x2="179" y1="664.9609" y2="977.125"/><line style="stroke:#A80036;stroke-width:1.0;stroke-dasharray:1.0,4.0;" x1="179" x2="179" y1="977.125" y2="1018.9609"/><line style="stroke:#181818;stroke-width:0.5;stroke-dasharray:5.0,5.0;" x1="179" x2="179" y1="1018.9609" y2="1065.6641"/><line style="stroke:#A80036;stroke-width:1.0;stroke-dasharray:1.0,4.0;" x1="179" x2="179" y1="1065.6641" y2="1107.5"/><line style="stroke:#181818;stroke-width:0.5;stroke-dasharray:5.0,5.0;" x1="179" x2="179" y1="1107.5" y2="1147.8516"/><line style="stroke:#181818;stroke-width:0.5;stroke-dasharray:5.0,5.0;" x1="306" x2="306" y1="82.6094" y2="200.0156"/><line style="stroke:#A80036;stroke-width:1.0;stroke-dasharray:1.0,4.0;" x1="306" x2="306" y1="200.0156" y2="241.8516"/><line style="stroke:#181818;stroke-width:0.5;stroke-dasharray:5.0,5.0;" x1="306" x2="306" y1="241.8516" y2="623.125"/><line style="stroke:#A80036;stroke-width:1.0;stroke-dasharray:1.0,4.0;" x1="306" x2="306" y1="623.125" y2="664.9609"/><line style="stroke:#181818;stroke-width:0.5;stroke-dasharray:5.0,5.0;" x1="306" x2="306" y1="664.9609" y2="977.125"/><line style="stroke:#A80036;stroke-width:1.0;stroke-dasharray:1.0,4.0;" x1="306" x2="306" y1="977.125" y2="1018.9609"/><line style="stroke:#181818;stroke-width:0.5;stroke-dasharray:5.0,5.0;" x1="306" x2="306" y1="1018.9609" y2="1065.6641"/><line style="stroke:#A80036;stroke-width:1.0;stroke-dasharray:1.0,4.0;" x1="306" x2="306" y1="1065.6641" y2="1107.5"/><line style="stroke:#181818;stroke-width:0.5;stroke-dasharray:5.0,5.0;" x1="306" x2="306" y1="1107.5" y2="1147.8516"/><line style="stroke:#181818;stroke-width:0.5;stroke-dasharray:5.0,5.0;" x1="551" x2="551" y1="82.6094" y2="200.0156"/><line style="stroke:#A80036;stroke-width:1.0;stroke-dasharray:1.0,4.0;" x1="551" x2="551" y1="200.0156" y2="241.8516"/><line style="stroke:#181818;stroke-width:0.5;stroke-dasharray:5.0,5.0;" x1="551" x2="551" y1="241.8516" y2="623.125"/><line style="stroke:#A80036;stroke-width:1.0;stroke-dasharray:1.0,4.0;" x1="551" x2="551" y1="623.125" y2="664.9609"/><line style="stroke:#181818;stroke-width:0.5;stroke-dasharray:5.0,5.0;" x1="551" x2="551" y1="664.9609" y2="977.125"/><line style="stroke:#A80036;stroke-width:1.0;stroke-dasharray:1.0,4.0;" x1="551" x2="551" y1="977.125" y2="1018.9609"/><line style="stroke:#181818;stroke-width:0.5;stroke-dasharray:5.0,5.0;" x1="551" x2="551" y1="1018.9609" y2="1065.6641"/><line style="stroke:#A80036;stroke-width:1.0;stroke-dasharray:1.0,4.0;" x1="551" x2="551" y1="1065.6641" y2="1107.5"/><line style="stroke:#181818;stroke-width:0.5;stroke-dasharray:5.0,5.0;" x1="551" x2="551" y1="1107.5" y2="1147.8516"/><line style="stroke:#181818;stroke-width:0.5;stroke-dasharray:5.0,5.0;" x1="668.5" x2="668.5" y1="82.6094" y2="200.0156"/><line style="stroke:#A80036;stroke-width:1.0;stroke-dasharray:1.0,4.0;" x1="668.5" x2="668.5" y1="200.0156" y2="241.8516"/><line style="stroke:#181818;stroke-width:0.5;stroke-dasharray:5.0,5.0;" x1="668.5" x2="668.5" y1="241.8516" y2="623.125"/><line style="stroke:#A80036;stroke-width:1.0;stroke-dasharray:1.0,4.0;" x1="668.5" x2="668.5" y1="623.125" y2="664.9609"/><line style="stroke:#181818;stroke-width:0.5;stroke-dasharray:5.0,5.0;" x1="668.5" x2="668.5" y1="664.9609" y2="977.125"/><line style="stroke:#A80036;stroke-width:1.0;stroke-dasharray:1.0,4.0;" x1="668.5" x2="668.5" y1="977.125" y2="1018.9609"/><line style="stroke:#181818;stroke-width:0.5;stroke-dasharray:5.0,5.0;" x1="668.5" x2="668.5" y1="1018.9609" y2="1065.6641"/><line style="stroke:#A80036;stroke-width:1.0;stroke-dasharray:1.0,4.0;" x1="668.5" x2="668.5" y1="1065.6641" y2="1107.5"/><line style="stroke:#181818;stroke-width:0.5;stroke-dasharray:5.0,5.0;" x1="668.5" x2="668.5" y1="1107.5" y2="1147.8516"/><line style="stroke:#181818;stroke-width:0.5;stroke-dasharray:5.0,5.0;" x1="839" x2="839" y1="82.6094" y2="200.0156"/><line style="stroke:#A80036;stroke-width:1.0;stroke-dasharray:1.0,4.0;" x1="839" x2="839" y1="200.0156" y2="241.8516"/><line style="stroke:#181818;stroke-width:0.5;stroke-dasharray:5.0,5.0;" x1="839" x2="839" y1="241.8516" y2="623.125"/><line style="stroke:#A80036;stroke-width:1.0;stroke-dasharray:1.0,4.0;" x1="839" x2="839" y1="623.125" y2="664.9609"/><line style="stroke:#181818;stroke-width:0.5;stroke-dasharray:5.0,5.0;" x1="839" x2="839" y1="664.9609" y2="977.125"/><line style="stroke:#A80036;stroke-width:1.0;stroke-dasharray:1.0,4.0;" x1="839" x2="839" y1="977.125" y2="1018.9609"/><line style="stroke:#181818;stroke-width:0.5;stroke-dasharray:5.0,5.0;" x1="839" x2="839" y1="1018.9609" y2="1065.6641"/><line style="stroke:#A80036;stroke-width:1.0;stroke-dasharray:1.0,4.0;" x1="839" x2="839" y1="1065.6641" y2="1107.5"/><line style="stroke:#181818;stroke-width:0.5;stroke-dasharray:5.0,5.0;" x1="839" x2="839" y1="1107.5" y2="1147.8516"/><line style="stroke:#181818;stroke-width:0.5;stroke-dasharray:5.0,5.0;" x1="909" x2="909" y1="82.6094" y2="200.0156"/><line style="stroke:#A80036;stroke-width:1.0;stroke-dasharray:1.0,4.0;" x1="909" x2="909" y1="200.0156" y2="241.8516"/><line style="stroke:#181818;stroke-width:0.5;stroke-dasharray:5.0,5.0;" x1="909" x2="909" y1="241.8516" y2="623.125"/><line style="stroke:#A80036;stroke-width:1.0;stroke-dasharray:1.0,4.0;" x1="909" x2="909" y1="623.125" y2="664.9609"/><line style="stroke:#181818;stroke-width:0.5;stroke-dasharray:5.0,5.0;" x1="909" x2="909" y1="664.9609" y2="977.125"/><line style="stroke:#A80036;stroke-width:1.0;stroke-dasharray:1.0,4.0;" x1="909" x2="909" y1="977.125" y2="1018.9609"/><line style="stroke:#181818;stroke-width:0.5;stroke-dasharray:5.0,5.0;" x1="909" x2="909" y1="1018.9609" y2="1065.6641"/><line style="stroke:#A80036;stroke-width:1.0;stroke-dasharray:1.0,4.0;" x1="909" x2="909" y1="1065.6641" y2="1107.5"/><line style="stroke:#181818;stroke-width:0.5;stroke-dasharray:5.0,5.0;" x1="909" x2="909" y1="1107.5" y2="1147.8516"/><line style="stroke:#181818;stroke-width:0.5;stroke-dasharray:5.0,5.0;" x1="1037.5" x2="1037.5" y1="82.6094" y2="200.0156"/><line style="stroke:#A80036;stroke-width:1.0;stroke-dasharray:1.0,4.0;" x1="1037.5" x2="1037.5" y1="200.0156" y2="241.8516"/><line style="stroke:#181818;stroke-width:0.5;stroke-dasharray:5.0,5.0;" x1="1037.5" x2="1037.5" y1="241.8516" y2="623.125"/><line style="stroke:#A80036;stroke-width:1.0;stroke-dasharray:1.0,4.0;" x1="1037.5" x2="1037.5" y1="623.125" y2="664.9609"/><line style="stroke:#181818;stroke-width:0.5;stroke-dasharray:5.0,5.0;" x1="1037.5" x2="1037.5" y1="664.9609" y2="977.125"/><line style="stroke:#A80036;stroke-width:1.0;stroke-dasharray:1.0,4.0;" x1="1037.5" x2="1037.5" y1="977.125" y2="1018.9609"/><line style="stroke:#181818;stroke-width:0.5;stroke-dasharray:5.0,5.0;" x1="1037.5" x2="1037.5" y1="1018.9609" y2="1065.6641"/><line style="stroke:#A80036;stroke-width:1.0;stroke-dasharray:1.0,4.0;" x1="1037.5" x2="1037.5" y1="1065.6641" y2="1107.5"/><line style="stroke:#181818;stroke-width:0.5;stroke-dasharray:5.0,5.0;" x1="1037.5" x2="1037.5" y1="1107.5" y2="1147.8516"/><text fill="#000000" font-family="sans-serif" font-size="14" lengthAdjust="spacing" textLength="53" x="5" y="79.5332">Traveler</text><ellipse cx="34.5" cy="13.5" fill="#E2E2F0" rx="8" ry="8" style="stroke:#181818;stroke-width:0.5;"/><path d="M34.5,21.5 L34.5,48.5 M21.5,29.5 L47.5,29.5 M34.5,48.5 L21.5,63.5 M34.5,48.5 L47.5,63.5 " fill="none" style="stroke:#181818;stroke-width:0.5;"/><text fill="#000000" font-family="sans-serif" font-size="14" lengthAdjust="spacing" textLength="53" x="5" y="1161.3848">Traveler</text><ellipse cx="34.5" cy="1172.9609" fill="#E2E2F0" rx="8" ry="8" style="stroke:#181818;stroke-width:0.5;"/><path d="M34.5,1180.9609 L34.5,1207.9609 M21.5,1188.9609 L47.5,1188.9609 M34.5,1207.9609 L21.5,1222.9609 M34.5,1207.9609 L47.5,1222.9609 " fill="none" style="stroke:#181818;stroke-width:0.5;"/><rect fill="#E2E2F0" height="31.6094" rx="2.5" ry="2.5" style="stroke:#181818;stroke-width:0.5;" width="113" x="123" y="50"/><text fill="#000000" font-family="sans-serif" font-size="14" lengthAdjust="spacing" textLength="99" x="130" y="71.5332">Booking Engine</text><rect fill="#E2E2F0" height="31.6094" rx="2.5" ry="2.5" style="stroke:#181818;stroke-width:0.5;" width="113" x="123" y="1146.8516"/><text fill="#000000" font-family="sans-serif" font-size="14" lengthAdjust="spacing" textLength="99" x="130" y="1168.3848">Booking Engine</text><rect fill="#E2E2F0" height="31.6094" rx="2.5" ry="2.5" style="stroke:#181818;stroke-width:0.5;" width="61" x="276" y="50"/><text fill="#000000" font-family="sans-serif" font-size="14" lengthAdjust="spacing" textLength="47" x="283" y="71.5332">Paywall</text><rect fill="#E2E2F0" height="31.6094" rx="2.5" ry="2.5" style="stroke:#181818;stroke-width:0.5;" width="61" x="276" y="1146.8516"/><text fill="#000000" font-family="sans-serif" font-size="14" lengthAdjust="spacing" textLength="47" x="283" y="1168.3848">Paywall</text><rect fill="#E2E2F0" height="31.6094" rx="2.5" ry="2.5" style="stroke:#181818;stroke-width:0.5;" width="41" x="531" y="50"/><text fill="#000000" font-family="sans-serif" font-size="14" lengthAdjust="spacing" textLength="27" x="538" y="71.5332">NAV</text><rect fill="#E2E2F0" height="31.6094" rx="2.5" ry="2.5" style="stroke:#181818;stroke-width:0.5;" width="41" x="531" y="1146.8516"/><text fill="#000000" font-family="sans-serif" font-size="14" lengthAdjust="spacing" textLength="27" x="538" y="1168.3848">NAV</text><rect fill="#E2E2F0" height="31.6094" rx="2.5" ry="2.5" style="stroke:#181818;stroke-width:0.5;" width="76" x="630.5" y="50"/><text fill="#000000" font-family="sans-serif" font-size="14" lengthAdjust="spacing" textLength="62" x="637.5" y="71.5332">NAV or IG</text><rect fill="#E2E2F0" height="31.6094" rx="2.5" ry="2.5" style="stroke:#181818;stroke-width:0.5;" width="76" x="630.5" y="1146.8516"/><text fill="#000000" font-family="sans-serif" font-size="14" lengthAdjust="spacing" textLength="62" x="637.5" y="1168.3848">NAV or IG</text><rect fill="#E2E2F0" height="31.6094" rx="2.5" ry="2.5" style="stroke:#181818;stroke-width:0.5;" width="37" x="821" y="50"/><text fill="#000000" font-family="sans-serif" font-size="14" lengthAdjust="spacing" textLength="23" x="828" y="71.5332">OIP</text><rect fill="#E2E2F0" height="31.6094" rx="2.5" ry="2.5" style="stroke:#181818;stroke-width:0.5;" width="37" x="821" y="1146.8516"/><text fill="#000000" font-family="sans-serif" font-size="14" lengthAdjust="spacing" textLength="23" x="828" y="1168.3848">OIP</text><rect fill="#E2E2F0" height="31.6094" rx="2.5" ry="2.5" style="stroke:#181818;stroke-width:0.5;" width="83" x="868" y="50"/><text fill="#000000" font-family="sans-serif" font-size="14" lengthAdjust="spacing" textLength="69" x="875" y="71.5332">D3 Archive</text><rect fill="#E2E2F0" height="31.6094" rx="2.5" ry="2.5" style="stroke:#181818;stroke-width:0.5;" width="83" x="868" y="1146.8516"/><text fill="#000000" font-family="sans-serif" font-size="14" lengthAdjust="spacing" textLength="69" x="875" y="1168.3848">D3 Archive</text><text fill="#000000" font-family="sans-serif" font-size="14" lengthAdjust="spacing" textLength="32" x="1018.5" y="79.5332">Hotel</text><ellipse cx="1037.5" cy="13.5" fill="#E2E2F0" rx="8" ry="8" style="stroke:#181818;stroke-width:0.5;"/><path d="M1037.5,21.5 L1037.5,48.5 M1024.5,29.5 L1050.5,29.5 M1037.5,48.5 L1024.5,63.5 M1037.5,48.5 L1050.5,63.5 " fill="none" style="stroke:#181818;stroke-width:0.5;"/><text fill="#000000" font-family="sans-serif" font-size="14" lengthAdjust="spacing" textLength="32" x="1018.5" y="1161.3848">Hotel</text><ellipse cx="1037.5" cy="1172.9609" fill="#E2E2F0" rx="8" ry="8" style="stroke:#181818;stroke-width:0.5;"/><path d="M1037.5,1180.9609 L1037.5,1207.9609 M1024.5,1188.9609 L1050.5,1188.9609 M1037.5,1207.9609 L1024.5,1222.9609 M1037.5,1207.9609 L1050.5,1222.9609 " fill="none" style="stroke:#181818;stroke-width:0.5;"/><polygon fill="#181818" points="167.5,127.3125,177.5,131.3125,167.5,135.3125,171.5,131.3125" style="stroke:#181818;stroke-width:1.0;"/><line style="stroke:#181818;stroke-width:1.0;" x1="34.5" x2="173.5" y1="131.3125" y2="131.3125"/><text fill="#000000" font-family="sans-serif" font-size="13" lengthAdjust="spacing" textLength="121" x="41.5" y="110.1045">Books overnight stay</text><text fill="#000000" font-family="sans-serif" font-size="13" lengthAdjust="spacing" textLength="83" x="45.5" y="126.4561">Cost 100 EUR</text><polygon fill="#181818" points="294.5,157.6641,304.5,161.6641,294.5,165.6641,298.5,161.6641" style="stroke:#181818;stroke-width:1.0;"/><line style="stroke:#181818;stroke-width:1.0;" x1="179.5" x2="300.5" y1="161.6641" y2="161.6641"/><text fill="#000000" font-family="sans-serif" font-size="13" lengthAdjust="spacing" textLength="103" x="186.5" y="156.8076">Sends reservation</text><polygon fill="#181818" points="294.5,188.0156,304.5,192.0156,294.5,196.0156,298.5,192.0156" style="stroke:#181818;stroke-width:1.0;"/><line style="stroke:#181818;stroke-width:1.0;" x1="34.5" x2="300.5" y1="192.0156" y2="192.0156"/><text fill="#000000" font-family="sans-serif" font-size="13" lengthAdjust="spacing" textLength="111" x="41.5" y="187.1592">Authorize Payment</text><text fill="#000000" font-family="sans-serif" font-size="11" lengthAdjust="spacing" textLength="72" x="500" y="225.4346">some time later</text><polygon fill="#181818" points="317.5,260.2031,307.5,264.2031,317.5,268.2031,313.5,264.2031" style="stroke:#181818;stroke-width:1.0;"/><line style="stroke:#181818;stroke-width:1.0;" x1="311.5" x2="1036.5" y1="264.2031" y2="264.2031"/><text fill="#000000" font-family="sans-serif" font-size="13" lengthAdjust="spacing" textLength="79" x="323.5" y="259.3467">Charges Stay</text><line style="stroke:#181818;stroke-width:1.0;" x1="306.5" x2="348.5" y1="294.5547" y2="294.5547"/><line style="stroke:#181818;stroke-width:1.0;" x1="348.5" x2="348.5" y1="294.5547" y2="307.5547"/><line style="stroke:#181818;stroke-width:1.0;" x1="307.5" x2="348.5" y1="307.5547" y2="307.5547"/><polygon fill="#181818" points="317.5,303.5547,307.5,307.5547,317.5,311.5547,313.5,307.5547" style="stroke:#181818;stroke-width:1.0;"/><text fill="#000000" font-family="sans-serif" font-size="13" lengthAdjust="spacing" textLength="135" x="313.5" y="289.6982">Calculates commission</text><line style="stroke:#181818;stroke-width:1.0;" x1="306.5" x2="348.5" y1="386.9609" y2="386.9609"/><line style="stroke:#181818;stroke-width:1.0;" x1="348.5" x2="348.5" y1="386.9609" y2="399.9609"/><line style="stroke:#181818;stroke-width:1.0;" x1="307.5" x2="348.5" y1="399.9609" y2="399.9609"/><polygon fill="#181818" points="317.5,395.9609,307.5,399.9609,317.5,403.9609,313.5,399.9609" style="stroke:#181818;stroke-width:1.0;"/><text fill="#000000" font-family="sans-serif" font-size="13" lengthAdjust="spacing" textLength="102" x="313.5" y="333.0498">Transfer Payment</text><text fill="#000000" font-family="sans-serif" font-size="13" lengthAdjust="spacing" textLength="163" x="313.5" y="349.4014">from Traveler Stripe Account</text><text fill="#000000" font-family="sans-serif" font-size="13" lengthAdjust="spacing" textLength="132" x="313.5" y="365.7529">to HRS Stripe Account</text><text fill="#000000" font-family="sans-serif" font-size="13" lengthAdjust="spacing" textLength="52" x="317.5" y="382.1045">100 EUR</text><line style="stroke:#181818;stroke-width:1.0;" x1="306.5" x2="348.5" y1="479.3672" y2="479.3672"/><line style="stroke:#181818;stroke-width:1.0;" x1="348.5" x2="348.5" y1="479.3672" y2="492.3672"/><line style="stroke:#181818;stroke-width:1.0;" x1="307.5" x2="348.5" y1="492.3672" y2="492.3672"/><polygon fill="#181818" points="317.5,488.3672,307.5,492.3672,317.5,496.3672,313.5,492.3672" style="stroke:#181818;stroke-width:1.0;"/><text fill="#000000" font-family="sans-serif" font-size="13" lengthAdjust="spacing" textLength="198" x="313.5" y="425.4561">Transfer payment of overnight stay</text><text fill="#000000" font-family="sans-serif" font-size="13" lengthAdjust="spacing" textLength="146" x="313.5" y="441.8076">from HRS Stripe Account</text><text fill="#000000" font-family="sans-serif" font-size="13" lengthAdjust="spacing" textLength="135" x="313.5" y="458.1592">to Hotel Stripe Account</text><text fill="#000000" font-family="sans-serif" font-size="13" lengthAdjust="spacing" textLength="52" x="317.5" y="474.5107">100 EUR</text><line style="stroke:#181818;stroke-width:1.0;" x1="306.5" x2="348.5" y1="571.7734" y2="571.7734"/><line style="stroke:#181818;stroke-width:1.0;" x1="348.5" x2="348.5" y1="571.7734" y2="584.7734"/><line style="stroke:#181818;stroke-width:1.0;" x1="307.5" x2="348.5" y1="584.7734" y2="584.7734"/><polygon fill="#181818" points="317.5,580.7734,307.5,584.7734,317.5,588.7734,313.5,584.7734" style="stroke:#181818;stroke-width:1.0;"/><text fill="#000000" font-family="sans-serif" font-size="13" lengthAdjust="spacing" textLength="167" x="313.5" y="517.8623">Transfer commission amount</text><text fill="#000000" font-family="sans-serif" font-size="13" lengthAdjust="spacing" textLength="149" x="313.5" y="534.2139">from Hotel Stripe Account</text><text fill="#000000" font-family="sans-serif" font-size="13" lengthAdjust="spacing" textLength="132" x="313.5" y="550.5654">to HRS Stripe Account</text><text fill="#000000" font-family="sans-serif" font-size="13" lengthAdjust="spacing" textLength="45" x="317.5" y="566.917">10 EUR</text><polygon fill="#181818" points="539.5,611.125,549.5,615.125,539.5,619.125,543.5,615.125" style="stroke:#181818;stroke-width:1.0;"/><line style="stroke:#181818;stroke-width:1.0;" x1="306.5" x2="545.5" y1="615.125" y2="615.125"/><text fill="#000000" font-family="sans-serif" font-size="13" lengthAdjust="spacing" textLength="217" x="313.5" y="610.2686">(1), (2) Sends all payment information</text><text fill="#000000" font-family="sans-serif" font-size="11" lengthAdjust="spacing" textLength="72" x="500" y="648.5439">some time later</text><line style="stroke:#181818;stroke-width:1.0;" x1="306.5" x2="348.5" y1="687.3125" y2="687.3125"/><line style="stroke:#181818;stroke-width:1.0;" x1="348.5" x2="348.5" y1="687.3125" y2="700.3125"/><line style="stroke:#181818;stroke-width:1.0;" x1="307.5" x2="348.5" y1="700.3125" y2="700.3125"/><polygon fill="#181818" points="317.5,696.3125,307.5,700.3125,317.5,704.3125,313.5,700.3125" style="stroke:#181818;stroke-width:1.0;"/><text fill="#000000" font-family="sans-serif" font-size="13" lengthAdjust="spacing" textLength="120" x="313.5" y="682.4561">Triggers daily payout</text><polygon fill="#181818" points="539.5,726.6641,549.5,730.6641,539.5,734.6641,543.5,730.6641" style="stroke:#181818;stroke-width:1.0;"/><line style="stroke:#181818;stroke-width:1.0;" x1="306.5" x2="545.5" y1="730.6641" y2="730.6641"/><text fill="#000000" font-family="sans-serif" font-size="13" lengthAdjust="spacing" textLength="164" x="313.5" y="725.8076">(3) Sends payout settlement</text><line style="stroke:#181818;stroke-width:1.0;" x1="551.5" x2="593.5" y1="761.0156" y2="761.0156"/><line style="stroke:#181818;stroke-width:1.0;" x1="593.5" x2="593.5" y1="761.0156" y2="774.0156"/><line style="stroke:#181818;stroke-width:1.0;" x1="552.5" x2="593.5" y1="774.0156" y2="774.0156"/><polygon fill="#181818" points="562.5,770.0156,552.5,774.0156,562.5,778.0156,558.5,774.0156" style="stroke:#181818;stroke-width:1.0;"/><text fill="#000000" font-family="sans-serif" font-size="13" lengthAdjust="spacing" textLength="92" x="558.5" y="756.1592">Posts invoice(s)</text><line style="stroke:#181818;stroke-width:1.0;" x1="551.5" x2="593.5" y1="804.3672" y2="804.3672"/><line style="stroke:#181818;stroke-width:1.0;" x1="593.5" x2="593.5" y1="804.3672" y2="817.3672"/><line style="stroke:#181818;stroke-width:1.0;" x1="552.5" x2="593.5" y1="817.3672" y2="817.3672"/><polygon fill="#181818" points="562.5,813.3672,552.5,817.3672,562.5,821.3672,558.5,817.3672" style="stroke:#181818;stroke-width:1.0;"/><text fill="#000000" font-family="sans-serif" font-size="13" lengthAdjust="spacing" textLength="103" x="558.5" y="799.5107">Posts payment(s)</text><polygon fill="#181818" points="656.5,843.7188,666.5,847.7188,656.5,851.7188,660.5,847.7188" style="stroke:#181818;stroke-width:1.0;"/><line style="stroke:#181818;stroke-width:1.0;" x1="306.5" x2="662.5" y1="847.7188" y2="847.7188"/><text fill="#000000" font-family="sans-serif" font-size="13" lengthAdjust="spacing" textLength="158" x="313.5" y="842.8623">Sends payment information</text><polygon fill="#181818" points="897.5,874.0703,907.5,878.0703,897.5,882.0703,901.5,878.0703" style="stroke:#181818;stroke-width:1.0;"/><line style="stroke:#181818;stroke-width:1.0;" x1="668.5" x2="903.5" y1="878.0703" y2="878.0703"/><text fill="#000000" font-family="sans-serif" font-size="13" lengthAdjust="spacing" textLength="147" x="675.5" y="873.2139">Archives PDF documents</text><polygon fill="#181818" points="827.5,904.4219,837.5,908.4219,827.5,912.4219,831.5,908.4219" style="stroke:#181818;stroke-width:1.0;"/><line style="stroke:#181818;stroke-width:1.0;" x1="668.5" x2="833.5" y1="908.4219" y2="908.4219"/><text fill="#000000" font-family="sans-serif" font-size="13" lengthAdjust="spacing" textLength="147" x="675.5" y="903.5654">Sends invoice information</text><polygon fill="#181818" points="1025.5,934.7734,1035.5,938.7734,1025.5,942.7734,1029.5,938.7734" style="stroke:#181818;stroke-width:1.0;"/><line style="stroke:#181818;stroke-width:1.0;" x1="668.5" x2="1031.5" y1="938.7734" y2="938.7734"/><text fill="#000000" font-family="sans-serif" font-size="13" lengthAdjust="spacing" textLength="80" x="675.5" y="933.917">Sends invoice</text><polygon fill="#181818" points="45.5,965.125,35.5,969.125,45.5,973.125,41.5,969.125" style="stroke:#181818;stroke-width:1.0;"/><line style="stroke:#181818;stroke-width:1.0;" x1="39.5" x2="667.5" y1="969.125" y2="969.125"/><text fill="#000000" font-family="sans-serif" font-size="13" lengthAdjust="spacing" textLength="123" x="51.5" y="964.2686">Sends booker invoice</text><text fill="#000000" font-family="sans-serif" font-size="11" lengthAdjust="spacing" textLength="72" x="500" y="1002.5439">some time later</text><polygon fill="#181818" points="850.5,1053.6641,840.5,1057.6641,850.5,1061.6641,846.5,1057.6641" style="stroke:#181818;stroke-width:1.0;"/><line style="stroke:#181818;stroke-width:1.0;" x1="844.5" x2="1036.5" y1="1057.6641" y2="1057.6641"/><text fill="#000000" font-family="sans-serif" font-size="13" lengthAdjust="spacing" textLength="174" x="856.5" y="1036.4561">lookup invoices and payments</text><text fill="#000000" font-family="sans-serif" font-size="13" lengthAdjust="spacing" textLength="64" x="856.5" y="1052.8076">on demand</text><text fill="#000000" font-family="sans-serif" font-size="11" lengthAdjust="spacing" textLength="37" x="517.5" y="1091.083">optional</text><polygon fill="#181818" points="317.5,1125.8516,307.5,1129.8516,317.5,1133.8516,313.5,1129.8516" style="stroke:#181818;stroke-width:1.0;"/><line style="stroke:#181818;stroke-width:1.0;" x1="311.5" x2="550.5" y1="1129.8516" y2="1129.8516"/><text fill="#000000" font-family="sans-serif" font-size="13" lengthAdjust="spacing" textLength="221" x="323.5" y="1124.9951">Sends done payment(s) and invoice(s)</text><!--SRC=[dLHDRzim3BtxLn0z9S0MjCkjXm5fqxMvj46oxHIWK6t54IQBXYIxo7xzg0_RKEAqm2wMHJxoFLAKM6vHmq_DMYwvpcgchSX5pPI5gpl4FqALyA1AeVWLC0FH52mfUisExqnA3ul_AU1vyTixQJrp08bOFNRkrvVDw-en1RsirjvDQ-fOpc6XyuDeWyBbFEuovajxGijbbdKLmjVlQH5mw_S6iELQYV9WmLXst2cuHsFXvleQ7dvjiZI6aiGIANpBLM50SyDrown0bP0Dk4LZ3wZ5N-vi5LSscyrcOB3YO0Lz9BCKGhRCQqw3xmzCbzp0bhHbdJb5C9atBeU17AjA6EEaZ499dp9x8ej2OAVs6gj-38X5Yvh38i-nKNQdBCBJPdjcxhlpCKiTMN1_rcHFUvuQ0gLlmt-I3Zq0LeN8G3QI53wgy9JBJUijJ6wcNs3oRHfFt_cwCeNQewx295mwuGlQHLboRQ1WGXvTFcpi2FMyOmq8CDnQoVr4EKGFNDC06vBJeiZvn4p7l56qywP4uGxsuprMt82YaFxUkKaFV_GEB7z0WNdZGasAftlS9uyIBoSFXtO2Jo7zx7QeDxgnjEt0dzwr84XIL5DtKNImgkXgDpj5mrJmYcm-7TPEAPC-J-pjwRDG83qNGvDzlk54_W40]--></g></svg>